<svg width="310" height="387" viewBox="0 0 310 387" fill="none" xmlns="http://www.w3.org/2000/svg">
<path d="M310 91.9656H307.872V33.7143C307.872 24.7727 304.317 16.1974 297.99 9.8747C291.663 3.55205 283.081 7.05162e-06 274.133 1.07358e-10H150.627C146.197 -1.11729e-05 141.809 0.872023 137.716 2.56632C133.622 4.26061 129.903 6.74398 126.77 9.87463C123.637 13.0053 121.152 16.7219 119.456 20.8123C117.761 24.9027 116.888 29.2868 116.888 33.7142V353.286C116.888 357.713 117.761 362.097 119.456 366.188C121.152 370.278 123.637 373.995 126.77 377.125C129.903 380.256 133.622 382.739 137.716 384.434C141.809 386.128 146.196 387 150.627 387H274.133C283.081 387 291.663 383.448 297.99 377.125C304.317 370.803 307.872 362.227 307.872 353.286V133.43H310V91.9656Z" fill="#3F3D56"/>
<path d="M275.494 8.77126H259.372C260.114 10.5876 260.397 12.5582 260.196 14.5095C259.996 16.4608 259.319 18.333 258.224 19.961C257.129 21.5891 255.65 22.9231 253.917 23.8455C252.185 24.7679 250.252 25.2505 248.289 25.2506H177.535C175.571 25.2505 173.639 24.768 171.906 23.8455C170.174 22.9231 168.695 21.5891 167.6 19.961C166.505 18.333 165.828 16.4608 165.627 14.5095C165.427 12.5581 165.71 10.5875 166.451 8.77124H151.394C144.711 8.77124 138.303 11.4238 133.577 16.1455C128.852 20.8672 126.198 27.2712 126.198 33.9487V353.051C126.198 356.358 126.849 359.631 128.115 362.686C129.382 365.741 131.238 368.516 133.577 370.854C135.917 373.192 138.695 375.047 141.752 376.312C144.808 377.577 148.085 378.229 151.394 378.229H275.494C278.803 378.229 282.079 377.577 285.136 376.312C288.193 375.047 290.971 373.192 293.31 370.854C295.65 368.516 297.506 365.741 298.772 362.686C300.038 359.632 300.69 356.358 300.69 353.051V33.9487C300.69 30.6423 300.038 27.3683 298.772 24.3137C297.506 21.259 295.65 18.4835 293.31 16.1455C290.971 13.8076 288.193 11.953 285.136 10.6878C282.079 9.42249 278.803 8.77126 275.494 8.77126Z" fill="white"/>
<path d="M213.229 68.1963H141.067V191.381H213.229V68.1963Z" fill="#E6E6E6"/>
<path d="M285.604 201.03H225.627V340.493H285.604V201.03Z" fill="#E6E6E6"/>
<path d="M285.821 68.1963H225.686V102.104H285.821V68.1963Z" fill="#E6E6E6"/>
<path d="M285.821 111.547H225.686V148.03H285.821V111.547Z" fill="#E6E6E6"/>
<path d="M285.821 157.473H225.686V191.381H285.821V157.473Z" fill="#E6E6E6"/>
<path d="M213.318 201.03H141.156V254.714H213.318V201.03Z" fill="#D80032"/>
<path d="M213.318 265.12H141.156V340.606H213.318V265.12Z" fill="#E6E6E6"/>
<path d="M127.784 205.944L137.829 211.041C141.414 212.86 144.874 212.549 146.199 208.755C146.514 207.853 146.63 206.893 146.54 205.941C146.449 204.989 146.154 204.068 145.674 203.241C145.195 202.414 144.542 201.7 143.76 201.148C142.979 200.596 142.087 200.22 141.147 200.044L131.6 198.264L90.7154 184.709L65.9491 167.161L56.8702 181.614L85.4874 197.045L127.784 205.944Z" fill="#FFB8B8"/>
<path d="M80.8966 375.119L88.5814 373.84L87.7273 359.334H79.6157L80.8966 375.119Z" fill="#FFB8B8"/>
<path d="M6.30969 360.952L13.747 363.27L19.5273 349.938L12.2858 346.285L6.30969 360.952Z" fill="#FFB8B8"/>
<path d="M41.66 157.69C56.2925 151.471 74.5174 155.411 92.3161 158.146C92.4817 154.834 94.4893 150.804 92.3863 148.493C89.8314 145.686 90.0666 142.737 91.604 139.77C95.5355 132.185 89.9028 124.114 84.2155 117.402C82.9336 115.893 81.3135 114.707 79.4869 113.941C77.6602 113.175 75.6785 112.85 73.7026 112.993L63.1673 113.745C60.6037 113.928 58.1571 114.889 56.155 116.499C54.1528 118.11 52.6906 120.293 51.964 122.756C49.4484 126.175 48.1019 129.584 48.9496 132.976C45.1817 135.549 44.5486 138.655 46.2418 142.156C47.6775 144.361 47.6623 146.507 46.1765 148.593C44.2252 151.254 42.7307 154.22 41.7542 157.371L41.66 157.69Z" fill="#2F2E41"/>
<path d="M10.4515 348.242L19.8442 352.082L64.6728 293.208L78.7618 362.321L88.1545 360.614C94.1797 301.03 99.0928 240.255 93.0643 211.51L58.2687 210.017L42.472 260.358L34.7871 294.488L10.4515 348.242Z" fill="#C0C7D2"/>
<path d="M81.3194 386.85C82.7245 387.151 84.1891 386.996 85.4995 386.406L90.0647 384.354C93.8926 384.157 96.4991 384.919 98.6304 382.14C99.2317 381.346 99.6092 380.405 99.7239 379.415C99.8385 378.426 99.6861 377.424 99.2825 376.513C98.8824 375.599 98.2461 374.808 97.4389 374.221C96.6317 373.634 95.6827 373.273 94.6894 373.174L88.4191 369.225L88.09 372.185C85.2241 373.808 81.8217 373.107 78.2164 371.528L76.2484 378.41C75.9946 379.298 75.926 380.228 76.0468 381.143C76.1677 382.058 76.4754 382.939 76.9509 383.73C77.4263 384.521 78.0594 385.207 78.8109 385.743C79.5624 386.28 80.4162 386.657 81.3194 386.85Z" fill="#2F2E41"/>
<path d="M3.26684 372.732C4.49805 373.472 5.9338 373.8 7.36474 373.668L12.3496 373.208C16.0339 374.264 18.2515 375.831 21.1705 373.894C21.9973 373.337 22.6601 372.57 23.0901 371.672C23.5201 370.773 23.7016 369.776 23.6158 368.783C23.5343 367.789 23.1895 366.835 22.6168 366.018C22.0441 365.201 21.2641 364.551 20.3569 364.134L15.7094 358.366L14.4363 361.058C11.1985 361.663 8.20821 359.896 5.31149 357.232L1.21337 363.104C0.684956 363.861 0.317839 364.718 0.134762 365.623C-0.048316 366.528 -0.0434504 367.46 0.149085 368.363C0.341621 369.266 0.717711 370.119 1.25402 370.871C1.79033 371.622 2.47544 372.256 3.26684 372.732Z" fill="#2F2E41"/>
<path d="M71.077 149.437C79.5655 149.437 86.4468 142.561 86.4468 134.079C86.4468 125.596 79.5655 118.72 71.077 118.72C62.5884 118.72 55.7072 125.596 55.7072 134.079C55.7072 142.561 62.5884 149.437 71.077 149.437Z" fill="#FFB8B8"/>
<path d="M52.2914 166.502L72.3578 162.235L74.9195 145.597L60.8303 142.611L52.2914 166.502Z" fill="#FFB8B8"/>
<path d="M57.8419 212.15H93.7047L85.6211 191.87C86.2085 184.892 83.2488 179.76 79.0128 175.291L73.6386 161.809C64.9552 156.098 58.4089 156.525 51.4377 163.942C43.1726 175.636 48.8936 193.214 57.8419 212.15Z" fill="#D80032"/>
<path d="M74.0656 255.239L75.0855 266.45C75.4495 270.451 77.5524 273.214 81.4721 272.319C82.4049 272.106 83.2805 271.694 84.0392 271.111C84.7979 270.528 85.4216 269.789 85.8677 268.943C86.3139 268.097 86.5718 267.165 86.624 266.211C86.6762 265.256 86.5213 264.301 86.17 263.412L82.6044 254.386L72.3578 212.577L74.0656 182.287H56.988L59.1227 214.71L74.0656 255.239Z" fill="#FFB8B8"/>
<path d="M47.1364 154.446C48.7889 139.485 53.0232 126.744 60.3708 116.683L61.4708 116.646V116.374L65.0425 116.526L74.9743 116.192C74.7418 116.434 74.52 116.677 74.2952 116.919L81.5369 117.227L88.368 131.306C81.8009 129.406 74.8892 129.014 68.1491 130.158C67.3106 130.285 66.52 130.629 65.8568 131.157C65.1936 131.685 64.681 132.378 64.3705 133.167C64.2518 133.414 64.1912 133.685 64.1934 133.959C64.1956 134.233 64.2605 134.503 64.3831 134.748C67.2539 139.752 67.1109 145.247 64.1931 151.017C63.5562 152.276 64.7792 153.792 65.1625 155.182L47.1364 154.446Z" fill="#2F2E41"/>
<path d="M55.7072 183.14H75.3464L73.9696 170.338C73.8791 168.124 72.9635 166.024 71.4026 164.449C69.8417 162.875 67.7483 161.941 65.5334 161.831C64.3597 161.772 63.186 161.946 62.0803 162.344C60.9746 162.742 59.9587 163.354 59.0915 164.147C58.2244 164.939 57.5231 165.896 57.0283 166.961C56.5335 168.026 56.2551 169.179 56.209 170.352L55.7072 183.14Z" fill="#D80032"/>
</svg>
