<svg width="172" height="75" viewBox="0 0 172 75" fill="none" xmlns="http://www.w3.org/2000/svg">
<path d="M11.9688 39.9688L29.0625 45.7188V55.3125L1.4375 44.0625V35.75L29.0625 24.5V34.0625L11.9688 39.9688ZM73.3125 53.375C71.625 55.25 69.1562 56.7604 65.9062 57.9062C62.6562 59.0521 59.0938 59.625 55.2188 59.625C49.2604 59.625 44.5 57.8021 40.9375 54.1562C37.375 50.5104 35.4688 45.4375 35.2188 38.9375L35.1875 35C35.1875 30.5208 35.9792 26.6146 37.5625 23.2812C39.1458 19.9271 41.4062 17.3542 44.3438 15.5625C47.3021 13.75 50.7188 12.8438 54.5938 12.8438C60.2604 12.8438 64.6562 14.1458 67.7812 16.75C70.9271 19.3333 72.7604 23.1979 73.2812 28.3438H62.7188C62.3438 25.8021 61.5312 23.9896 60.2812 22.9062C59.0312 21.8229 57.2604 21.2812 54.9688 21.2812C52.2188 21.2812 50.0938 22.4479 48.5938 24.7812C47.0938 27.1146 46.3333 30.4479 46.3125 34.7812V37.5312C46.3125 42.0729 47.0833 45.4896 48.625 47.7812C50.1875 50.0521 52.6354 51.1875 55.9688 51.1875C58.8229 51.1875 60.9479 50.5521 62.3438 49.2812V42.2188H54.7188V34.6875H73.3125V53.375ZM115.406 21.9688H101.75V59H90.7812V21.9688H77.375V13.5H115.406V21.9688ZM123.188 62.9062H115.719L131.25 13.5H138.75L123.188 62.9062ZM159.594 39.875L142.594 34.0938V24.5312L170.062 35.7812V44.0938L142.594 55.3438V45.7812L159.594 39.875Z" fill="#FEFEFE"/>
</svg>
