<svg width="86" height="38" viewBox="0 0 86 38" fill="none" xmlns="http://www.w3.org/2000/svg">
<path d="M5.98438 20.4844L14.5312 23.3594V28.1562L0.71875 22.5312V18.375L14.5312 12.75V17.5312L5.98438 20.4844ZM36.6562 27.1875C35.8125 28.125 34.5781 28.8802 32.9531 29.4531C31.3281 30.026 29.5469 30.3125 27.6094 30.3125C24.6302 30.3125 22.25 29.401 20.4688 27.5781C18.6875 25.7552 17.7344 23.2188 17.6094 19.9688L17.5938 18C17.5938 15.7604 17.9896 13.8073 18.7812 12.1406C19.5729 10.4635 20.7031 9.17708 22.1719 8.28125C23.651 7.375 25.3594 6.92188 27.2969 6.92188C30.1302 6.92188 32.3281 7.57292 33.8906 8.875C35.4635 10.1667 36.3802 12.099 36.6406 14.6719H31.3594C31.1719 13.401 30.7656 12.4948 30.1406 11.9531C29.5156 11.4115 28.6302 11.1406 27.4844 11.1406C26.1094 11.1406 25.0469 11.724 24.2969 12.8906C23.5469 14.0573 23.1667 15.724 23.1562 17.8906V19.2656C23.1562 21.5365 23.5417 23.2448 24.3125 24.3906C25.0938 25.526 26.3177 26.0938 27.9844 26.0938C29.4115 26.0938 30.474 25.776 31.1719 25.1406V21.6094H27.3594V17.8438H36.6562V27.1875ZM57.7031 11.4844H50.875V30H45.3906V11.4844H38.6875V7.25H57.7031V11.4844ZM61.5938 31.9531H57.8594L65.625 7.25H69.375L61.5938 31.9531ZM79.7969 20.4375L71.2969 17.5469V12.7656L85.0312 18.3906V22.5469L71.2969 28.1719V23.3906L79.7969 20.4375Z" fill="#2B2D42"/>
</svg>
