<svg width="25" height="19" viewBox="0 0 25 19" fill="none" xmlns="http://www.w3.org/2000/svg">
<path d="M0 1.58333C0 0.708883 0.708882 0 1.58333 0H23.4167C24.2911 0 25 0.708883 25 1.58333V1.58333C25 2.45778 24.2911 3.16667 23.4167 3.16667H1.58333C0.708881 3.16667 0 2.45778 0 1.58333V1.58333ZM6.25 9.5C6.25 8.62555 6.95888 7.91667 7.83333 7.91667H23.4167C24.2911 7.91667 25 8.62555 25 9.5V9.5C25 10.3745 24.2911 11.0833 23.4167 11.0833H7.83333C6.95888 11.0833 6.25 10.3745 6.25 9.5V9.5ZM14.0625 17.4167C14.0625 16.5422 14.7714 15.8333 15.6458 15.8333H23.4167C24.2911 15.8333 25 16.5422 25 17.4167V17.4167C25 18.2911 24.2911 19 23.4167 19H15.6458C14.7714 19 14.0625 18.2911 14.0625 17.4167V17.4167Z" fill="#07050D"/>
</svg>
